<svg width="233" height="52" viewBox="0 0 233 52" fill="none" xmlns="http://www.w3.org/2000/svg">
<path d="M4.43488 31.9583L4.36014 29.6609L14.924 18.531H17.0418L9.34311 26.8018L8.29668 27.9505L4.43488 31.9583ZM2.84033 36.4001V18.531H4.68403V36.4001H2.84033ZM15.3725 36.4001L7.84822 27.5166L9.09396 26.1381L17.565 36.4001H15.3725ZM26.7971 36.5532C25.4849 36.5532 24.2641 36.332 23.1346 35.8895C22.0218 35.43 21.0501 34.7919 20.2196 33.975C19.4057 33.1411 18.7662 32.1796 18.3012 31.0904C17.8527 29.9842 17.6284 28.7759 17.6284 27.4655C17.6284 26.1551 17.8527 24.9553 18.3012 23.8662C18.7662 22.76 19.4057 21.7985 20.2196 20.9816C21.0501 20.1477 22.0218 19.5095 23.1346 19.0671C24.2475 18.6076 25.4683 18.3778 26.7971 18.3778C28.1093 18.3778 29.3218 18.6076 30.4347 19.0671C31.5475 19.5095 32.5109 20.1392 33.3248 20.9561C34.1553 21.7729 34.7948 22.7345 35.2433 23.8407C35.7083 24.9468 35.9409 26.1551 35.9409 27.4655C35.9409 28.7759 35.7083 29.9842 35.2433 31.0904C34.7948 32.1966 34.1553 33.1581 33.3248 33.975C32.5109 34.7919 31.5475 35.43 30.4347 35.8895C29.3218 36.332 28.1093 36.5532 26.7971 36.5532ZM26.7971 34.8684C27.8435 34.8684 28.8069 34.6897 29.6872 34.3324C30.5842 33.958 31.3565 33.4389 32.0043 32.7752C32.6687 32.0945 33.1836 31.3116 33.549 30.4267C33.9145 29.5247 34.0972 28.5377 34.0972 27.4655C34.0972 26.3934 33.9145 25.4148 33.549 24.5299C33.1836 23.6279 32.6687 22.8451 32.0043 22.1814C31.3565 21.5007 30.5842 20.9816 29.6872 20.6242C28.8069 20.2498 27.8435 20.0626 26.7971 20.0626C25.7507 20.0626 24.779 20.2498 23.8821 20.6242C22.9851 20.9816 22.2045 21.5007 21.5401 22.1814C20.8923 22.8451 20.3774 23.6279 19.9954 24.5299C19.6299 25.4148 19.4472 26.3934 19.4472 27.4655C19.4472 28.5207 19.6299 29.4992 19.9954 30.4012C20.3774 31.3031 20.8923 32.0945 21.5401 32.7752C22.2045 33.4389 22.9851 33.958 23.8821 34.3324C24.779 34.6897 25.7507 34.8684 26.7971 34.8684ZM39.326 36.4001V18.531H40.8458L52.8795 34.0516H52.0822V18.531H53.901V36.4001H52.3812L40.3724 20.8795H41.1697V36.4001H39.326ZM60.4905 26.521H69.709V28.1292H60.4905V26.521ZM60.6898 34.7663H71.179V36.4001H58.8461V18.531H70.8053V20.1647H60.6898V34.7663ZM82.291 36.5532C80.9788 36.5532 79.7663 36.332 78.6535 35.8895C77.5406 35.43 76.5772 34.7919 75.7633 33.975C74.9494 33.1581 74.31 32.1966 73.8449 31.0904C73.3964 29.9842 73.1722 28.7759 73.1722 27.4655C73.1722 26.1551 73.3964 24.9468 73.8449 23.8407C74.31 22.7345 74.9494 21.7729 75.7633 20.9561C76.5938 20.1392 77.5655 19.5095 78.6784 19.0671C79.7912 18.6076 81.0038 18.3778 82.3159 18.3778C83.5783 18.3778 84.7659 18.5991 85.8788 19.0415C86.9916 19.467 87.9301 20.1137 88.6941 20.9816L87.5231 22.1814C86.8089 21.4326 86.0199 20.8965 85.1562 20.5732C84.2925 20.2328 83.3624 20.0626 82.3658 20.0626C81.3193 20.0626 80.3477 20.2498 79.4507 20.6242C78.5538 20.9816 77.7731 21.5007 77.1087 22.1814C76.4443 22.8451 75.9211 23.6279 75.5391 24.5299C75.1737 25.4148 74.991 26.3934 74.991 27.4655C74.991 28.5377 75.1737 29.5247 75.5391 30.4267C75.9211 31.3116 76.4443 32.0945 77.1087 32.7752C77.7731 33.4389 78.5538 33.958 79.4507 34.3324C80.3477 34.6897 81.3193 34.8684 82.3658 34.8684C83.3624 34.8684 84.2925 34.6983 85.1562 34.3579C86.0199 34.0175 86.8089 33.4729 87.5231 32.7241L88.6941 33.9239C87.9301 34.7919 86.9916 35.4471 85.8788 35.8895C84.7659 36.332 83.57 36.5532 82.291 36.5532ZM95.0465 36.4001V20.1647H88.9174V18.531H103.019V20.1647H96.8902V36.4001H95.0465ZM101.551 36.4001L109.523 18.531H111.342L119.315 36.4001H117.372L110.047 19.6287H110.794L103.469 36.4001H101.551ZM104.69 31.6265L105.238 30.0948H115.378L115.927 31.6265H104.69ZM125.492 32.4065H132.107V36.4001H120.443V15.1614H125.492V32.4065ZM141.041 15.1614V36.4001H135.992V15.1614H141.041ZM158.727 25.5084C159.928 25.7707 160.892 26.3858 161.62 27.354C162.349 28.3019 162.713 29.3911 162.713 30.6215C162.713 32.3964 162.103 33.8082 160.882 34.8571C159.681 35.8857 157.998 36.4001 155.833 36.4001H146.177V15.1614H155.508C157.614 15.1614 159.258 15.6555 160.439 16.6439C161.64 17.6322 162.24 18.9735 162.24 20.6677C162.24 21.9182 161.916 22.957 161.266 23.7839C160.636 24.6109 159.79 25.1857 158.727 25.5084ZM151.226 23.7537H154.533C155.36 23.7537 155.99 23.5721 156.423 23.2091C156.876 22.8258 157.102 22.2712 157.102 21.5451C157.102 20.819 156.876 20.2643 156.423 19.8811C155.99 19.4978 155.36 19.3063 154.533 19.3063H151.226V23.7537ZM154.947 32.2249C155.794 32.2249 156.443 32.0333 156.896 31.6501C157.368 31.2467 157.604 30.6719 157.604 29.9256C157.604 29.1793 157.359 28.5944 156.866 28.1708C156.394 27.7473 155.734 27.5355 154.888 27.5355H151.226V32.2249H154.947ZM177.689 36.4001L173.378 28.3826H172.167V36.4001H167.118V15.1614H175.593C177.227 15.1614 178.615 15.4539 179.756 16.0388C180.918 16.6237 181.784 17.4305 182.355 18.4591C182.926 19.4676 183.211 20.5971 183.211 21.8476C183.211 23.2595 182.817 24.5201 182.03 25.6295C181.262 26.7388 180.121 27.5254 178.604 27.9893L183.388 36.4001H177.689ZM172.167 24.7218H175.297C176.223 24.7218 176.912 24.4898 177.364 24.026C177.837 23.5621 178.073 22.9065 178.073 22.0594C178.073 21.2526 177.837 20.6173 177.364 20.1534C176.912 19.6895 176.223 19.4575 175.297 19.4575H172.167V24.7218ZM200.761 32.6485H193.025L191.784 36.4001H186.499L193.999 15.1614H199.846L207.346 36.4001H202.001L200.761 32.6485ZM199.462 28.6549L196.893 20.8795L194.353 28.6549H199.462Z" fill="white"/>
<path fill-rule="evenodd" clip-rule="evenodd" d="M212.606 10.367C212.52 10.4722 212.412 10.6524 212.364 10.7674C212.251 11.0397 212.197 11.5609 212.259 11.7909C212.315 12.0007 212.343 11.9732 211.797 12.2463C209.396 13.4455 207.484 15.7767 206.75 18.4001C205.767 21.9153 206.779 25.6372 209.399 28.1337C210.325 29.0168 211.142 29.4123 212.086 29.4338C213.004 29.4548 213.555 29.2859 214.416 28.7199C214.97 28.3558 215.078 28.302 215.305 28.2745C215.586 28.2406 215.919 28.3385 216.021 28.4849C216.078 28.5664 216.049 28.6146 215.768 28.9154C214.895 29.8494 214.509 31.2689 214.792 32.5094C214.963 33.2639 215.466 34.1296 216.011 34.6094C217.038 35.5144 218.47 35.8036 219.791 35.3732C220.174 35.2482 220.297 35.1812 220.776 34.8347C221.408 34.3769 221.641 34.1159 221.984 33.4813C222.881 31.8251 222.476 29.7179 221.031 28.5205C220.613 28.1742 220.006 27.8674 219.528 27.7621C219.361 27.7253 219.357 27.7198 219.199 27.3595C219.007 26.9181 218.466 26.1876 218.104 25.8797C217.751 25.5804 217.017 25.1942 216.557 25.0668C215.99 24.9096 215.421 24.8887 214.772 25.0012C214.026 25.1307 213.715 25.2563 213.069 25.6881C212.462 26.0942 212.29 26.1598 212.099 26.0582C211.62 25.8046 210.637 24.5937 210.273 23.8108C209.315 21.7476 209.468 19.4372 210.69 17.5258C211.255 16.642 212.331 15.6771 213.261 15.2207C214.075 14.821 215.171 14.5357 216.016 14.5029C216.838 14.4711 217.86 14.715 218.621 15.1241C219.925 15.8253 221.322 17.5731 222.194 19.5948C222.613 20.5672 222.966 20.9125 223.645 21.0167C224.084 21.084 225.919 20.6691 226.342 20.4068C226.927 20.0446 227.246 19.3884 227.154 18.7369C227.006 17.6942 225.716 15.2641 224.496 13.7301C223.541 12.5298 222.873 11.8737 221.96 11.242C219.683 9.66487 217.062 9.10218 214.321 9.60205C213.279 9.79203 212.953 9.93749 212.606 10.367ZM213.851 10.6792C214.307 10.5543 215.037 10.4413 215.658 10.3995C217.959 10.2446 220.42 11.0864 222.204 12.6387C223.595 13.85 225.14 16.096 225.976 18.1228C226.305 18.921 226.307 19.2003 225.986 19.5064C225.858 19.6294 225.687 19.6854 224.845 19.8787C223.81 20.1165 223.647 20.1186 223.422 19.8966C223.356 19.8308 223.19 19.5158 223.041 19.1703C222.896 18.8348 222.639 18.314 222.471 18.0131C222.074 17.3044 221.026 15.8731 220.555 15.3983C219.421 14.2553 217.882 13.58 216.327 13.5427C215.83 13.5308 214.811 13.6633 214.33 13.8026C214.185 13.8445 214.044 13.877 214.017 13.8747C213.969 13.8709 213.192 11.7343 213.17 11.5442C213.142 11.3057 213.278 10.972 213.469 10.8115C213.496 10.7888 213.667 10.7293 213.851 10.6792ZM212.172 13.1311C212.39 13.0205 212.584 12.9326 212.602 12.9355C212.62 12.9386 212.735 13.2249 212.857 13.5717C213.064 14.161 213.072 14.2069 212.974 14.2707C212.917 14.3083 212.627 14.4827 212.33 14.6582C210.239 15.8956 208.831 18.2313 208.721 20.6431C208.69 21.3066 208.705 21.5908 208.801 22.2246C209.041 23.8132 209.863 25.3401 211.092 26.4801C211.533 26.8893 211.892 27.0644 212.277 27.057C212.662 27.0496 212.863 26.9693 213.309 26.6449C214.463 25.8056 215.839 25.6581 216.931 26.2566C217.401 26.5139 217.8 26.8628 218.07 27.252C218.324 27.6174 218.315 27.6448 217.917 27.7142C217.732 27.7466 217.431 27.8316 217.25 27.9031L216.918 28.0331L216.756 27.8592C216.285 27.3532 215.506 27.1726 214.8 27.4053C214.714 27.4336 214.369 27.6346 214.034 27.8519C213.307 28.3226 212.948 28.4529 212.326 28.4711C211.557 28.4936 210.93 28.2367 210.252 27.6213C209.254 26.7157 208.419 25.5188 207.935 24.3005C207.106 22.213 207.125 19.7373 207.988 17.6845C208.817 15.7132 210.334 14.0616 212.172 13.1311ZM214.566 12.0367C214.497 12.4472 214.947 12.745 215.276 12.5058C215.469 12.3653 215.531 12.0281 215.399 11.8382C215.335 11.7465 215.239 11.6926 215.097 11.6686C214.82 11.622 214.612 11.7661 214.566 12.0367ZM217.485 12.1446C217.428 12.4192 217.609 12.6618 217.886 12.6838C218.165 12.7058 218.334 12.5754 218.38 12.3026C218.405 12.1566 218.387 12.046 218.323 11.9542C218.259 11.8625 218.163 11.8086 218.021 11.7846C217.75 11.7391 217.54 11.8807 217.485 12.1446ZM220.238 13.214C220.154 13.3586 220.16 13.6 220.252 13.7319C220.418 13.9723 220.856 13.9651 221.017 13.7194C221.194 13.451 221.043 13.0648 220.735 12.9945C220.522 12.9459 220.35 13.0219 220.238 13.214ZM217.47 28.8474C218 28.6253 218.464 28.5752 219.062 28.6762C219.932 28.823 220.476 29.1668 220.972 29.8841C221.412 30.5195 221.584 31.1862 221.5 31.9308C221.332 33.4417 220.11 34.5763 218.614 34.6129C217.636 34.6367 216.754 34.1789 216.174 33.3474C215.716 32.6893 215.562 31.9621 215.704 31.1254C215.884 30.0674 216.522 29.2452 217.47 28.8474ZM217.294 30.2986C216.865 30.727 216.68 31.3479 216.791 31.9875C216.965 32.9772 217.927 33.641 218.91 33.4484C219.217 33.3885 219.307 33.3453 219.637 33.103C220.119 32.7482 220.303 32.4349 220.382 31.8303C220.611 30.0722 218.548 29.0483 217.294 30.2986ZM218.6 30.7073C219.391 30.731 219.758 31.6884 219.199 32.2722C218.931 32.5529 218.313 32.5919 218.03 32.3459C217.855 32.1936 217.682 31.8293 217.683 31.6158C217.686 31.1312 218.128 30.6931 218.6 30.7073Z" fill="#F5AA39"/>
</svg>
